<svg xmlns="http://www.w3.org/2000/svg" width="20" height="20" fill="none" viewBox="0 0 20 20">
    <path fill="#000" d="M14.639 17.094H4.36c-1.094 0-1.985-.893-1.985-1.99V4.799c0-1.098.89-1.99 1.985-1.99H14.64c1.094 0 1.985.892 1.985 1.99v10.305c0 1.097-.89 1.99-1.985 1.99zM4.36 3.701c-.603 0-1.094.493-1.094 1.098v10.305c0 .605.49 1.097 1.094 1.097H14.64c.603 0 1.094-.492 1.094-1.097V4.799c0-.605-.49-1.098-1.094-1.098H4.36z"/>
    <path fill="#000" d="M4.36 3.7c-.246 0-.446-.2-.446-.447V.873c0-.247.2-.447.445-.447.246 0 .446.2.446.446v2.381c0 .247-.2.447-.446.447zM6.416 3.7c-.246 0-.445-.2-.445-.447V.873c0-.247.2-.447.445-.447.246 0 .445.2.445.446v2.381c0 .247-.2.447-.445.447zM8.473 3.7c-.246 0-.446-.2-.446-.447V.873c0-.247.2-.447.446-.447.245 0 .445.2.445.446v2.381c0 .247-.2.447-.445.447zM10.527 3.7c-.245 0-.445-.2-.445-.447V.873c0-.247.2-.447.445-.447.246 0 .446.2.446.446v2.381c0 .247-.2.447-.446.447zM12.582 3.7c-.246 0-.445-.2-.445-.447V.873c0-.247.2-.447.445-.447.246 0 .445.2.445.446v2.381c0 .247-.2.447-.445.447zM14.639 3.7c-.246 0-.446-.2-.446-.447V.873c0-.247.2-.447.446-.447.245 0 .445.2.445.446v2.381c0 .247-.2.447-.445.447zM4.361 19.47c-.246 0-.445-.2-.445-.447v-2.381c0-.247.2-.447.445-.447.246 0 .446.2.446.447v2.38c0 .247-.2.447-.446.447zM6.416 19.47c-.246 0-.445-.2-.445-.447v-2.381c0-.247.2-.447.445-.447.246 0 .445.2.445.447v2.38c0 .247-.2.447-.445.447zM8.473 19.47c-.246 0-.446-.2-.446-.447v-2.381c0-.247.2-.447.446-.447.245 0 .445.2.445.447v2.38c0 .247-.2.447-.445.447zM10.53 19.47c-.247 0-.446-.2-.446-.447v-2.381c0-.247.2-.447.445-.447.246 0 .446.2.446.447v2.38c0 .247-.2.447-.446.447zM12.584 19.47c-.246 0-.445-.2-.445-.447v-2.381c0-.247.2-.447.445-.447.246 0 .445.2.445.447v2.38c0 .247-.2.447-.445.447zM14.639 19.47c-.246 0-.446-.2-.446-.447v-2.381c0-.247.2-.447.446-.447.245 0 .445.2.445.447v2.38c0 .247-.2.447-.445.447zM18.555 5.24H16.18c-.246 0-.446-.2-.446-.446s.2-.446.446-.446h2.375c.245 0 .445.2.445.446 0 .247-.2.447-.445.447zM18.556 7.3h-2.374c-.246 0-.446-.2-.446-.447s.2-.447.446-.447h2.374c.246 0 .446.2.446.447 0 .246-.2.446-.446.446zM18.555 9.365H16.18c-.246 0-.446-.2-.446-.446s.2-.446.446-.446h2.375c.245 0 .445.2.445.446 0 .247-.2.446-.445.446zM18.556 11.428h-2.374c-.246 0-.446-.2-.446-.446 0-.247.2-.447.446-.447h2.374c.246 0 .446.2.446.447 0 .246-.2.446-.446.446zM18.554 13.487H16.18c-.246 0-.446-.2-.446-.447 0-.246.2-.446.446-.446h2.374c.246 0 .446.2.446.446 0 .247-.2.447-.446.447zM18.556 15.55h-2.374c-.246 0-.446-.2-.446-.447s.2-.447.446-.447h2.374c.246 0 .446.2.446.447 0 .246-.2.446-.446.446zM2.82 5.24H.445C.2 5.24 0 5.04 0 4.795s.2-.446.445-.446H2.82c.246 0 .445.2.445.446 0 .247-.2.447-.445.447zM2.82 7.3H.445C.2 7.3 0 7.1 0 6.852s.2-.447.445-.447H2.82c.246 0 .445.2.445.447 0 .246-.2.446-.445.446zM2.82 9.365H.445C.2 9.365 0 9.165 0 8.92s.2-.446.445-.446H2.82c.246 0 .445.2.445.446 0 .247-.2.446-.445.446zM2.82 11.428H.445c-.246 0-.445-.2-.445-.446 0-.247.2-.447.445-.447H2.82c.246 0 .445.2.445.447 0 .246-.2.446-.445.446zM2.82 13.487H.445c-.246 0-.445-.2-.445-.447 0-.246.2-.446.445-.446H2.82c.246 0 .445.2.445.446 0 .247-.2.447-.445.447zM2.82 15.55H.445c-.246 0-.445-.2-.445-.447s.2-.447.445-.447H2.82c.246 0 .445.2.445.447 0 .246-.2.446-.445.446zM12.84 5.41H6.16c-.656 0-1.187.533-1.187 1.19v6.697c0 .657.531 1.19 1.187 1.19h6.68c.655 0 1.187-.533 1.187-1.19V6.6c0-.658-.532-1.19-1.188-1.19zm-.83 7.316H9.477c-.245 0-.445-.2-.445-.446s.2-.446.445-.446h2.533c.246 0 .446.2.446.446 0 .247-.2.446-.446.446z"/>
</svg>
