<svg width="64" height="64" viewBox="0 0 64 64" fill="none" xmlns="http://www.w3.org/2000/svg">
<rect width="64" height="64" rx="8" fill="white"/>
<g clip-path="url(#clip0)">
<path fill-rule="evenodd" clip-rule="evenodd" d="M12.0555 46.896C10.8684 46.896 10.542 46.3395 10.542 45.4029V20.108C10.542 18.9368 11.1058 18.6149 12.0555 18.6149H17.1914C18.1114 18.6149 18.7049 18.9075 18.7049 20.108V39.6645" fill="#E12353"/>
<path fill-rule="evenodd" clip-rule="evenodd" d="M12.0557 16.271L43.2553 27.2789C44.5907 27.8936 44.7989 28.2453 44.7989 29.3867V34.3051C44.7989 35.4177 44.5907 35.7987 43.2553 36.4133L12.0557 47.4794C11.3731 47.7432 10.5422 47.5379 10.5422 46.5721V40.8927C10.5422 39.5752 10.9571 39.1947 12.2045 38.7845L33.7554 31.8169L12.2045 24.7902C10.9571 24.3805 10.5422 24.0293 10.5422 22.6532V17.2373C10.5713 16.2124 11.4028 16.0075 12.0557 16.271Z" fill="#111333"/>
<path fill-rule="evenodd" clip-rule="evenodd" d="M23.1282 16.271L54.3278 27.2789C55.6637 27.8936 55.8715 28.2453 55.8715 29.3867V34.3051C55.8715 35.4177 55.6637 35.7987 54.3278 36.4133L23.1282 47.4794C22.4457 47.7432 21.6147 47.5379 21.6147 46.5721V40.8927C21.6147 39.5752 22.0297 39.1947 23.2771 38.7845L44.828 31.8169L23.2771 24.7902C22.0302 24.3805 21.6147 24.0293 21.6147 22.6532V17.2373C21.6147 16.2124 22.4457 16.0075 23.1282 16.271Z" fill="#E12353"/>
</g>
<defs>
<clipPath id="clip0">
<rect width="45.9167" height="31.6667" fill="white" transform="translate(10.5417 16.1666)"/>
</clipPath>
</defs>
</svg>
