<svg width="51" height="16" viewBox="0 0 51 16" fill="none" xmlns="http://www.w3.org/2000/svg">
<path d="M16.1974 5.57387L15.7022 6.53493C15.1566 6.23441 14.6527 6.07164 14.2751 6.07164C14.0148 6.07164 13.8301 6.17435 13.8301 6.38884C13.8301 7.0238 16.2142 6.71494 16.2055 8.32801C16.2055 9.28036 15.3917 9.80371 14.3003 9.80371C13.5448 9.80371 12.8146 9.58069 12.2688 9.1517L12.7306 8.20788C13.2426 8.57681 13.8301 8.78277 14.3338 8.78277C14.6193 8.78277 14.829 8.67988 14.829 8.46539C14.829 7.78742 12.487 8.13929 12.4955 6.51769C12.4955 5.56535 13.2845 5.05052 14.3338 5.05052C14.9886 5.05052 15.6432 5.23925 16.1974 5.57387Z" fill="white"/>
<path d="M21.2998 6.82704V9.74414H19.856V7.23898C19.856 6.69838 19.5453 6.36376 19.0586 6.36376C18.5297 6.36376 18.1938 6.74992 18.1352 7.29904V9.74414H16.6829V5.11961H18.1352V5.8747C18.4541 5.33411 18.9746 5.05973 19.6461 5.05102C20.645 5.05102 21.2998 5.74604 21.2998 6.82704Z" fill="white"/>
<path d="M24.5707 8.17189V7.75996H23.6558C23.2192 7.75996 23.0012 7.91439 23.0012 8.25754C23.0012 8.59236 23.2363 8.80666 23.6389 8.80666C24.0924 8.80666 24.4785 8.54934 24.5707 8.17189ZM25.9976 6.72196V9.74195H24.5792V9.21007C24.2855 9.60477 23.8069 9.81055 23.1942 9.81055C22.2289 9.81055 21.6414 9.21007 21.6414 8.36062C21.6414 7.4854 22.2541 6.97076 23.3788 6.96204H24.5707V6.89345C24.5707 6.43869 24.277 6.16413 23.6895 6.16413C23.3117 6.16413 22.8164 6.30132 22.3379 6.55029L21.9267 5.57218C22.6319 5.23755 23.2696 5.04864 24.0251 5.04864C25.2676 5.04864 25.9895 5.67507 25.9976 6.72196Z" fill="white"/>
<path d="M30.2027 7.40913C30.2027 6.70557 29.7913 6.20799 29.1869 6.20799C28.5996 6.20799 28.1882 6.70557 28.1882 7.40913C28.1882 8.12992 28.5996 8.61879 29.1869 8.61879C29.7913 8.61879 30.2027 8.12121 30.2027 7.40913ZM31.6635 7.45195C31.6635 8.85905 30.8409 9.79416 29.5731 9.79416C28.9858 9.79416 28.5071 9.55389 28.1882 9.12509V11.4072H26.7361V5.11827H28.1882V5.72746C28.5071 5.307 28.9687 5.06673 29.5397 5.06673C30.8157 5.06673 31.6635 6.01908 31.6635 7.45195Z" fill="white"/>
<path d="M39.6376 6.9557V9.74414H38.983V7.1359C38.983 6.32946 38.5212 5.85746 37.7572 5.85746C36.8423 5.88323 36.3136 6.55248 36.3136 7.52207V9.74414H35.6505V7.1359C35.6505 6.32946 35.1972 5.85746 34.4249 5.85746C33.5183 5.88323 32.9726 6.55248 32.9726 7.52207V9.74414H32.3259V5.2225H32.9726V6.24362C33.2664 5.54007 33.8624 5.20544 34.66 5.19692C35.4909 5.19692 36.0617 5.63444 36.2465 6.38081C36.5233 5.58308 37.1445 5.20544 37.9925 5.19692C39.0249 5.19692 39.6376 5.86599 39.6376 6.9557Z" fill="white"/>
<path d="M40.7505 5.22055H41.3968V9.74219H40.7505V5.22055ZM41.4977 3.92486C41.4977 4.1909 41.313 4.38815 41.0696 4.38815C40.8262 4.38815 40.6414 4.1909 40.6414 3.92486C40.6414 3.65902 40.8262 3.46158 41.0696 3.46158C41.313 3.46158 41.4977 3.65902 41.4977 3.92486Z" fill="white"/>
<path d="M46.7065 6.9557V9.74414H46.0519V7.1359C46.0519 6.33799 45.5817 5.86599 44.8011 5.86599C43.9281 5.8747 43.3908 6.45793 43.3154 7.31591V9.74414H42.6604V5.2225H43.3154V6.21785C43.6259 5.53136 44.2217 5.20544 45.0276 5.19692C46.0853 5.19692 46.7065 5.86599 46.7065 6.9557Z" fill="white"/>
<path d="M50.1106 9.43303C49.8001 9.64752 49.4643 9.76765 49.1117 9.77637C48.4655 9.77637 47.987 9.38167 47.987 8.48921V5.90674H47.3489V5.36615H47.987V4.17354H48.6331V5.36615L50.0351 5.35762V5.90674H48.6331V8.36908C48.6331 8.91839 48.8431 9.12417 49.2209 9.12417C49.4475 9.12417 49.6825 9.04686 49.926 8.89243L50.1106 9.43303Z" fill="white"/>
<path d="M1.84369 5.30544C1.37572 3.98324 1.85203 2.92003 2.19539 2.385C2.65755 1.66476 3.38453 1.20611 3.96713 1.03481C3.96858 1.92338 3.96731 3.40019 3.96677 3.83771C3.604 3.94635 2.54491 4.33307 1.84369 5.30544ZM4.14035 0.200933C3.2699 0.491622 2.42103 1.13029 1.75227 1.99587C0.907393 3.04017 0.428 4.3073 0.366149 5.66528L0.365605 5.68641C0.362521 5.75741 0.360707 5.8286 0.360163 5.89887L0.359619 5.9543C0.359619 6.02456 0.36107 6.09445 0.36361 6.16434L0.364154 6.18696C0.456477 8.73829 2.10615 11.008 4.46992 11.8348L4.68268 11.9092V7.47671L4.53921 7.46077C4.30378 7.43463 4.06943 7.38142 3.84288 7.303C3.14674 7.06126 2.54872 6.58406 2.14877 5.9543C2.55017 5.32175 3.15091 4.844 3.8505 4.60281C4.07415 4.52569 4.30559 4.47359 4.53921 4.44783L4.68268 4.43188V-0.000585556L4.46992 0.0737553C4.3591 0.112316 4.24446 0.156624 4.14035 0.200933Z" fill="white"/>
<path d="M6.3126 14.1771C6.31115 13.2886 6.3126 11.8117 6.31278 11.3742C6.67573 11.2656 7.735 10.8789 8.43568 9.90668C8.90437 11.2287 8.4277 12.2917 8.08434 12.8271C7.62273 13.547 6.89538 14.0056 6.3126 14.1771ZM9.91648 9.04796L9.9154 9.02479C9.82362 6.47383 8.17395 4.20412 5.80999 3.3771L5.59741 3.30275V7.73541L5.74089 7.75117C5.97632 7.77731 6.21048 7.83033 6.43685 7.90875C7.13299 8.15068 7.73101 8.62769 8.13096 9.25764C7.72956 9.89037 7.12882 10.3681 6.42941 10.6091C6.20577 10.6862 5.97432 10.7383 5.74089 10.7643L5.59741 10.7801V15.2129L5.80999 15.1384C5.92517 15.0978 6.03871 15.0538 6.13956 15.0112C7.0102 14.7201 7.85907 14.0813 8.52746 13.2159C9.37252 12.1718 9.85173 10.9046 9.91376 9.54518L9.91395 9.52534C9.91721 9.45396 9.91921 9.38315 9.91975 9.30361L9.92029 9.25764C9.92029 9.18756 9.91884 9.11748 9.91648 9.04796Z" fill="white"/>
</svg>
