<svg width="66" height="69" viewBox="0 0 66 69" fill="none" xmlns="http://www.w3.org/2000/svg">
<ellipse cx="32.9858" cy="34.3022" rx="32.9858" ry="34.3022" fill="white"/>
<path d="M20.4833 25.1093C18.7075 19.99 20.515 15.8734 21.818 13.8019C23.5718 11.0133 26.3305 9.23743 28.5414 8.5742C28.5469 12.0146 28.5421 17.7325 28.54 19.4265C27.1634 19.8471 23.1443 21.3444 20.4833 25.1093ZM29.1987 5.34557C25.8955 6.47107 22.6742 8.94386 20.1364 12.2952C16.9303 16.3386 15.1111 21.2447 14.8763 26.5025L14.8743 26.5843C14.8626 26.8592 14.8557 27.1349 14.8536 27.4069L14.8516 27.6215C14.8516 27.8936 14.8571 28.1642 14.8667 28.4348L14.8688 28.5224C15.2191 38.4006 21.4793 47.1885 30.4494 50.3899L31.2568 50.6777V33.516L30.7123 33.4543C29.8189 33.3531 28.9296 33.1471 28.0699 32.8435C25.4282 31.9075 23.1588 30.0599 21.6411 27.6215C23.1643 25.1724 25.444 23.3227 28.0988 22.3888C28.9475 22.0902 29.8258 21.8885 30.7123 21.7888L31.2568 21.727V4.56533L30.4494 4.85316C30.0288 5.00246 29.5938 5.17402 29.1987 5.34557Z" fill="#AFE137"/>
<path d="M37.4445 59.4519C37.439 56.0115 37.4445 50.2935 37.4452 48.5996C38.8225 48.1789 42.8422 46.6816 45.5012 42.9175C47.2798 48.0361 45.4709 52.1519 44.1679 54.2249C42.4162 57.0121 39.656 58.7879 37.4445 59.4519ZM51.1206 39.5927L51.1164 39.503C50.7681 29.6262 44.5079 20.8382 35.5372 17.6362L34.7305 17.3483V34.5107L35.2749 34.5718C36.1684 34.673 37.057 34.8783 37.916 35.1819C40.5577 36.1186 42.8271 37.9655 44.3448 40.4045C42.8216 42.8544 40.5419 44.7041 37.8878 45.6372C37.0391 45.9358 36.1608 46.1375 35.2749 46.238L34.7305 46.299V63.4622L35.5372 63.1736C35.9742 63.0164 36.4051 62.8463 36.7878 62.6812C40.0917 61.5543 43.313 59.0808 45.8495 55.7301C49.0563 51.6875 50.8748 46.7814 51.1102 41.5178L51.1109 41.441C51.1233 41.1647 51.1309 40.8905 51.1329 40.5825L51.135 40.4045C51.135 40.1332 51.1295 39.8619 51.1206 39.5927Z" fill="#AFE137"/>
</svg>
